#!OML:ASF H:\Terrain\Patient Classification 1\PLAYGROUND\JustinFriday\JustinFriday.ASF
:FULLY-SPECIFIED
:DEGREES
1681
root 13.216 19.9911 24.0461 200.048 -3.55581 -176.517
lowerback 6.82619 -0.118369 1.32343
upperback -9.15859 -0.336716 2.86893
thorax -13.8649 -0.391247 2.56091
lowerneck -7.35009 -4.33461 -10.2992
upperneck 3.34622 -5.26033 8.20548
head 2.67896 -2.50449 3.9016
rclavicle -1.98785e-015 7.95139e-015
rhumerus 120.415 -21.0332 -60.4591
rradius 24.3826
rwrist 24.936
rhand -35.2165 -1.69704
rfingers 7.12502
rthumb -8.35368 -391.512
lclavicle -1.98785e-015 7.95139e-015
lhumerus 123.509 20.7834 76.2264
lradius 10.9574
lwrist -67.4308
lhand -52.0985 -13.965
lfingers 7.12502
lthumb -24.6019 14.4741
rfemur 14.429 -3.70266 24.1197
rtibia 48.6479
rfoot 7.21603 -3.12034
rtoes 47.6165
lfemur 14.7421 5.08714 -6.49366
ltibia 61.9297
lfoot 7.42126 -11.4505
ltoes -26.1632
1682
root 13.2202 20.0151 24.0334 200.052 -3.70502 -176.887
lowerback 6.76632 -0.14074 1.10402
upperback -9.12006 -0.392798 2.8341
thorax -13.7781 -0.393969 2.65125
lowerneck -7.29586 -4.39571 -10.6258
upperneck 3.20029 -5.31337 8.28571
head 2.64239 -2.53298 3.97771
rclavicle 7.60351e-015 -3.57812e-014
rhumerus 120.417 -21.106 -60.2657
rradius 24.5465
rwrist 24.963
rhand -35.1306 -1.71292
rfingers 7.12502
rthumb -8.27085 -391.531
lclavicle 7.60351e-015 -3.57812e-014
lhumerus 123.323 21.3724 75.7417
lradius 10.7237
lwrist -66.594
lhand -52.3134 -13.8635
lfingers 7.12502
lthumb -24.8079 14.5474
rfemur 14.8641 -3.76589 23.8667
rtibia 48.9283
rfoot 7.30169 -2.61856
rtoes 50.3889
lfemur 14.3902 4.76483 -6.70124
ltibia 63.0881
lfoot 7.56734 -11.1918
ltoes -26.8217
1683
root 13.2285 20.0352 24.0154 200.06 -3.69924 -177.142
lowerback 6.6345 -0.0948412 0.859907
upperback -9.10448 -0.364857 2.83281
thorax -13.6765 -0.356349 2.77717
lowerneck -7.2131 -4.36782 -10.9893
upperneck 3.18734 -5.2524 8.38303
head 2.63156 -2.50516 4.07151
rclavicle -1.61513e-015 1.23246e-014
rhumerus 120.518 -20.7714 -60.4342
rradius 24.6139
rwrist 25.4547
rhand -35.086 -1.59104
rfingers 7.12502
rthumb -8.22774 -391.411
lclavicle -1.61513e-015 1.23246e-014
lhumerus 123.162 21.667 75.5578
lradius 10.4938
lwrist -66.1598
lhand -52.5332 -13.7884
lfingers 7.12502
lthumb -25.0185 14.5933
rfemur 15.2577 -3.5998 23.7538
rtibia 49.2459
rfoot 7.11523 -2.35517
rtoes 52.9505
lfemur 14.032 4.59108 -6.83085
ltibia 64.181
lfoot 7.8339 -10.9785
ltoes -27.043
1684
root 13.233 20.0468 24.0056 199.781 -3.85782 -177.037
lowerback 6.75035 -0.0752627 1.05416
upperback -8.97681 -0.283693 2.96078
thorax -13.6025 -0.3242 2.79117
lowerneck -7.1918 -4.34683 -11.3555
upperneck 3.19323 -5.18458 8.31757
head 2.63067 -2.47732 4.11463
rclavicle -1.41634e-014 1.66979e-014
rhumerus 120.624 -20.6083 -60.3641
rradius 24.6662
rwrist 25.7692
rhand -35.0344 -1.53473
rfingers 7.12502
rthumb -8.17795 -391.356
lclavicle -1.41634e-014 1.66979e-014
lhumerus 123.012 22.3167 75.0763
lradius 10.108
lwrist -65.258
lhand -52.7985 -13.6922
lfingers 7.12502
lthumb -25.2727 14.6538
rfemur 15.8531 -3.64765 23.9736
rtibia 49.5291
rfoot 6.88061 -1.93341
rtoes 54.3524
lfemur 13.9015 4.40167 -6.39486
ltibia 65.2815
lfoot 8.03645 -10.8087
ltoes -26.2755
1685
root 13.2384 20.06 23.9926 199.52 -3.91035 -177.208
lowerback 6.86843 -0.0626583 0.952687
upperback -8.81936 -0.25166 2.96639
thorax -13.4918 -0.287981 2.8421
lowerneck -7.34105 -4.40815 -11.6542
upperneck 3.31493 -5.22687 8.35238
head 2.70417 -2.49833 4.1676
rclavicle -1.39646e-014 3.4191e-014
rhumerus 120.699 -20.7178 -60.1699
rradius 24.725
rwrist 25.7064
rhand -35.0491 -1.49459
rfingers 7.12502
rthumb -8.1922 -391.316
lclavicle -1.39646e-014 3.4191e-014
lhumerus 123.373 22.2859 75.6815
lradius 9.78286
lwrist -65.5801
lhand -53.0441 -13.8519
lfingers 7.12502
lthumb -25.508 14.4607
rfemur 16.3743 -3.81032 23.8002
rtibia 49.8583
rfoot 7.05366 -1.33392
rtoes 55.3234
lfemur 13.718 4.34462 -6.20954
ltibia 66.3535
lfoot 8.18846 -10.699
ltoes -25.5648
1686
root 13.2414 20.0742 23.9746 199.371 -3.98567 -177.181
lowerback 6.91091 -0.0568266 1.08607
upperback -8.72661 -0.2124 2.98713
thorax -13.4108 -0.277133 2.77873
lowerneck -7.54511 -4.49459 -11.9455
upperneck 3.54221 -5.31091 8.54463
head 2.82719 -2.53502 4.26408
rclavicle 1.21756e-014 -2.78299e-014
rhumerus 120.771 -20.7711 -60.0783
rradius 24.7072
rwrist 25.6572
rhand -35.0918 -1.41941
rfingers 7.12502
rthumb -8.23341 -391.239
lclavicle 1.21756e-014 -2.78299e-014
lhumerus 123.581 22.1664 76.1054
lradius 9.54682
lwrist -65.9155
lhand -53.2649 -13.9068
lfingers 7.12502
lthumb -25.7195 14.3753
rfemur 16.6958 -3.86772 23.8386
rtibia 50.2589
rfoot 7.54854 -1.0853
rtoes 57.4338
lfemur 13.3869 4.3129 -5.85004
ltibia 67.3883
lfoot 8.40328 -10.6797
ltoes -25.3286
